<svg width="1268" height="264" viewBox="0 0 1268 264" fill="none" xmlns="http://www.w3.org/2000/svg">
<path d="M66.6562 263.344C43.1211 263.344 26.1289 257.484 15.6797 245.766C5.32813 234.047 0.152344 215.395 0.152344 189.809V164.613H51.1289V196.84C51.1289 202.797 52.0078 207.484 53.7656 210.902C55.6211 214.223 58.7949 215.883 63.2871 215.883C67.9746 215.883 71.1973 214.516 72.9551 211.781C74.8105 209.047 75.7383 204.555 75.7383 198.305C75.7383 190.395 74.957 183.803 73.3945 178.529C71.832 173.158 69.0977 168.08 65.1914 163.295C61.3828 158.412 56.0605 152.748 49.2246 146.303L26.0801 124.33C8.79492 108.021 0.152344 89.3691 0.152344 68.373C0.152344 46.4004 5.23047 29.6523 15.3867 18.1289C25.6406 6.60547 40.4355 0.84375 59.7715 0.84375C83.4043 0.84375 100.152 7.14258 110.016 19.7402C119.977 32.3379 124.957 51.4785 124.957 77.1621H72.5156V59.4375C72.5156 55.9219 71.4902 53.1875 69.4395 51.2344C67.4863 49.2812 64.8008 48.3047 61.3828 48.3047C57.2812 48.3047 54.2539 49.4766 52.3008 51.8203C50.4453 54.0664 49.5176 56.9961 49.5176 60.6094C49.5176 64.2227 50.4941 68.1289 52.4473 72.3281C54.4004 76.5273 58.2578 81.3613 64.0195 86.8301L93.7559 115.395C99.7129 121.059 105.182 127.064 110.162 133.412C115.143 139.662 119.146 146.986 122.174 155.385C125.201 163.686 126.715 173.842 126.715 185.854C126.715 210.072 122.223 229.066 113.238 242.836C104.352 256.508 88.8242 263.344 66.6562 263.344ZM185.73 261L153.943 3.04102H203.016L221.912 178.529L238.758 3.04102H287.83L256.043 261H185.73ZM374.092 263.344C337.275 263.344 318.867 236.977 318.867 184.242V73.0605C318.867 24.916 339.961 0.84375 382.148 0.84375C399.531 0.84375 412.861 4.35938 422.139 11.3906C431.416 18.3242 437.812 28.4805 441.328 41.8594C444.844 55.2383 446.602 71.5469 446.602 90.7852H396.211V67.9336C396.211 62.3672 395.43 57.7285 393.867 54.0176C392.402 50.209 389.277 48.3047 384.492 48.3047C378.535 48.3047 374.58 50.3066 372.627 54.3105C370.771 58.3145 369.844 62.709 369.844 67.4941V192.445C369.844 199.379 370.723 205.043 372.48 209.438C374.336 213.734 377.9 215.883 383.174 215.883C388.643 215.883 392.256 213.734 394.014 209.438C395.869 205.043 396.797 199.281 396.797 192.152V155.385H383.027V110.854H446.016V261H425.361L416.572 239.32C407.588 255.336 393.428 263.344 374.092 263.344ZM572.836 261V3.1875H651.352L673.031 160.365L694.564 3.1875H773.812V261H726.645V75.2578L697.055 261H650.766L619.418 75.2578V261H572.836ZM807.633 261L832.535 3.1875H919.986L944.449 261H895.67L892.008 219.398H860.953L857.73 261H807.633ZM864.615 178.236H888.053L876.773 47.1328H874.43L864.615 178.236ZM1039.5 263.344C1015.96 263.344 998.973 257.484 988.523 245.766C978.172 234.047 972.996 215.395 972.996 189.809V164.613H1023.97V196.84C1023.97 202.797 1024.85 207.484 1026.61 210.902C1028.46 214.223 1031.64 215.883 1036.13 215.883C1040.82 215.883 1044.04 214.516 1045.8 211.781C1047.65 209.047 1048.58 204.555 1048.58 198.305C1048.58 190.395 1047.8 183.803 1046.24 178.529C1044.68 173.158 1041.94 168.08 1038.04 163.295C1034.23 158.412 1028.9 152.748 1022.07 146.303L998.924 124.33C981.639 108.021 972.996 89.3691 972.996 68.373C972.996 46.4004 978.074 29.6523 988.23 18.1289C998.484 6.60547 1013.28 0.84375 1032.62 0.84375C1056.25 0.84375 1073 7.14258 1082.86 19.7402C1092.82 32.3379 1097.8 51.4785 1097.8 77.1621H1045.36V59.4375C1045.36 55.9219 1044.33 53.1875 1042.28 51.2344C1040.33 49.2812 1037.64 48.3047 1034.23 48.3047C1030.12 48.3047 1027.1 49.4766 1025.14 51.8203C1023.29 54.0664 1022.36 56.9961 1022.36 60.6094C1022.36 64.2227 1023.34 68.1289 1025.29 72.3281C1027.24 76.5273 1031.1 81.3613 1036.86 86.8301L1066.6 115.395C1072.56 121.059 1078.03 127.064 1083.01 133.412C1087.99 139.662 1091.99 146.986 1095.02 155.385C1098.04 163.686 1099.56 173.842 1099.56 185.854C1099.56 210.072 1095.07 229.066 1086.08 242.836C1077.2 256.508 1061.67 263.344 1039.5 263.344ZM1134.84 261V3.1875H1185.82V106.459L1209.84 3.1875H1261.7L1232.84 121.254L1267.71 261H1214.24L1186.11 136.195V261H1134.84Z" fill="black"/>
</svg>
